<svg xmlns="http://www.w3.org/2000/svg" xmlns:xlink="http://www.w3.org/1999/xlink" width="780" zoomAndPan="magnify" viewBox="0 0 585 585.000005" height="780" preserveAspectRatio="xMidYMid meet" version="1.0"><defs><clipPath id="id1"><path d="M 36.472656 85 L 528 85 L 528 476.425781 L 36.472656 476.425781 Z M 36.472656 85 " clip-rule="nonzero"/></clipPath><clipPath id="id2"><path d="M 120 80.417969 L 413 80.417969 L 413 461 L 120 461 Z M 120 80.417969 " clip-rule="nonzero"/></clipPath><clipPath id="id3"><path d="M 116.15625 125 L 584.074219 125 L 584.074219 395.269531 L 116.15625 395.269531 Z M 116.15625 125 " clip-rule="nonzero"/></clipPath></defs><g clip-path="url(#id1)"><path fill="#ffffff" d="M 88.449219 284.394531 C 152.277344 205.003906 119.847656 151.734375 172.121094 110.726562 C 222.957031 70.832031 295.949219 88.75 307.34375 91.457031 C 360.015625 103.878906 392.210938 136.449219 400.65625 145.285156 C 423.128906 168.695312 416.753906 174.585938 441.773438 204.6875 C 482.574219 253.738281 510.144531 250.949219 522.972656 283.597656 C 538.035156 321.980469 514.765625 363.703125 510.0625 372.066406 C 482.175781 422.152344 428.148438 438.238281 374.359375 453.367188 C 322.722656 467.9375 191.722656 504.808594 93.3125 436.40625 C 78.730469 426.214844 36.414062 396.832031 36.972656 358.371094 C 37.371094 330.101562 60.636719 319.035156 88.449219 284.394531 " fill-opacity="1" fill-rule="nonzero"/></g><g clip-path="url(#id2)"><path fill="#ffffff" d="M 160.484375 191.707031 L 155.945312 250.15625 L 148.054688 304.460938 L 137.933594 304.460938 L 137.933594 268.152344 L 132.996094 304.460938 L 121.121094 304.460938 L 121.121094 252.78125 L 120.003906 198.394531 Z M 412.210938 450.660156 L 412.210938 172.4375 C 412.210938 166.863281 407.667969 162.324219 402.089844 162.324219 L 253.875 162.324219 C 248.296875 162.324219 243.757812 166.863281 243.757812 172.4375 L 243.757812 450.660156 C 243.757812 456.234375 248.296875 460.773438 253.875 460.773438 L 402.171875 460.773438 C 407.75 460.773438 412.210938 456.3125 412.210938 450.660156 Z M 293.800781 140.1875 L 169.410156 155.714844 C 166.382812 156.113281 163.59375 153.964844 163.195312 150.855469 L 157.140625 102.523438 C 156.742188 99.496094 158.890625 96.707031 162 96.308594 L 286.386719 80.78125 C 289.417969 80.386719 292.207031 82.535156 292.605469 85.640625 L 298.660156 133.976562 C 299.058594 137.003906 296.828125 139.789062 293.800781 140.1875 " fill-opacity="1" fill-rule="nonzero"/></g><path fill="#3784ba" d="M 22.949219 427.726562 L 29.085938 457.585938 L 59.683594 457.585938 L 65.019531 427.726562 Z M 16.015625 414.347656 L 70.761719 414.347656 L 70.761719 427.726562 L 16.015625 427.726562 Z M 43.429688 262.019531 C 51 268.152344 82.949219 295.382812 83.828125 335.753906 C 84.066406 346.027344 84.464844 367.207031 69.085938 381.222656 C 60.082031 389.425781 49.40625 391.65625 43.429688 392.371094 C 37.292969 391.414062 23.824219 388.308594 14.105469 377.082031 C 0.957031 361.875 3.503906 341.886719 5.179688 329.386719 C 9.722656 294.109375 33.230469 270.9375 43.429688 262.019531 " fill-opacity="1" fill-rule="nonzero"/><g clip-path="url(#id3)"><path fill="#3784ba" d="M 543.613281 264.726562 C 551.183594 270.859375 583.136719 298.089844 584.011719 338.460938 C 584.25 348.734375 584.648438 369.914062 569.269531 383.929688 C 560.265625 392.132812 549.589844 394.363281 543.613281 395.078125 C 537.476562 394.121094 524.007812 391.015625 514.289062 379.789062 C 501.140625 364.582031 503.691406 344.59375 505.363281 332.09375 C 509.984375 296.738281 533.492188 273.566406 543.613281 264.726562 Z M 366.3125 249.199219 C 366.152344 254.375 366.390625 258.515625 366.710938 261.460938 C 367.109375 265.203125 367.585938 268.070312 365.914062 271.015625 C 364.957031 272.6875 363.761719 273.722656 362.804688 274.363281 L 362.804688 293.234375 L 380.574219 293.234375 L 380.574219 263.292969 L 394.601562 263.292969 L 394.601562 218.382812 L 366.550781 218.382812 Z M 140.164062 129.039062 C 142.714844 129.117188 145.027344 127.605469 146.0625 125.296875 C 156.023438 125.613281 159.929688 129.515625 161.125 131.03125 C 162.320312 132.464844 163.515625 134.613281 164.789062 136.761719 C 166.621094 139.867188 167.894531 142.652344 168.691406 144.484375 L 159.769531 149.742188 L 146.300781 139.949219 C 143.59375 143.214844 140.960938 146.558594 138.253906 149.820312 C 141.359375 152.210938 145.1875 154.917969 149.808594 157.386719 C 154.75 160.011719 159.289062 161.84375 163.195312 163.117188 C 163.671875 172.355469 164.230469 181.511719 164.710938 190.75 C 156.582031 192.976562 147.496094 195.046875 137.535156 196.5625 C 130.125 197.675781 123.191406 198.394531 116.660156 198.871094 C 119.128906 181.113281 118.570312 166.859375 117.457031 156.589844 C 116.339844 146.796875 114.425781 137.640625 119.847656 131.347656 C 123.75 126.808594 129.886719 125.535156 134.507812 125.296875 C 135.542969 127.523438 137.695312 129.039062 140.164062 129.039062 " fill-opacity="1" fill-rule="nonzero"/></g><path fill="#0f0e0c" d="M 196.582031 108.019531 L 164.710938 112.160156 L 169.410156 148.230469 L 201.285156 144.089844 Z M 212.042969 239.566406 L 207.101562 213.527344 L 147.417969 213.527344 L 152.597656 239.328125 L 152.597656 239.484375 Z M 154.589844 265.921875 L 149.726562 241.476562 L 149.726562 241.316406 L 122.714844 241.316406 L 118.253906 266.003906 L 154.589844 266.003906 Z M 128.769531 208.03125 L 143.035156 208.03125 L 138.015625 182.871094 L 135.542969 170.605469 Z M 123.273438 238.050781 L 149.011719 238.050781 L 143.832031 212.253906 L 143.59375 211.21875 L 128.132812 211.21875 Z M 141.519531 184.144531 L 146.539062 209.304688 L 146.78125 210.339844 L 206.542969 210.339844 L 201.523438 184.144531 Z M 217.859375 270.144531 L 181.921875 270.222656 C 181.042969 270.222656 180.328125 269.503906 180.328125 268.628906 C 180.328125 267.753906 181.042969 267.039062 181.921875 267.039062 L 217.300781 266.957031 L 212.679688 242.75 L 153.234375 242.75 L 158.09375 267.039062 L 170.046875 267.039062 C 170.925781 267.039062 171.640625 267.753906 171.640625 268.628906 C 171.640625 269.503906 170.925781 270.222656 170.046875 270.222656 L 158.734375 270.222656 L 159.210938 272.453125 C 159.371094 273.328125 158.8125 274.125 157.9375 274.363281 C 157.058594 274.523438 156.261719 273.964844 156.023438 273.089844 L 155.226562 269.109375 L 117.613281 269.109375 L 112.835938 295.464844 L 157.617188 295.464844 C 158.492188 295.464844 159.210938 296.179688 159.210938 297.058594 C 159.210938 297.933594 158.492188 298.648438 157.617188 298.648438 L 112.277344 298.648438 L 107.8125 323.175781 L 155.386719 323.175781 C 156.261719 323.175781 156.980469 323.890625 156.980469 324.769531 C 156.980469 325.644531 156.261719 326.359375 155.386719 326.359375 L 107.257812 326.359375 L 102.476562 352.558594 L 158.8125 352.558594 C 159.6875 352.558594 160.40625 353.273438 160.40625 354.152344 C 160.40625 355.027344 159.6875 355.742188 158.8125 355.742188 L 101.835938 355.742188 L 97.054688 382.019531 L 161.601562 382.019531 C 162.476562 382.019531 163.195312 382.738281 163.195312 383.613281 C 163.195312 384.488281 162.476562 385.207031 161.601562 385.207031 L 96.5 385.207031 L 92.035156 409.8125 L 155.703125 409.8125 C 156.582031 409.8125 157.296875 410.527344 157.296875 411.402344 C 157.296875 412.28125 156.582031 412.996094 155.703125 412.996094 L 91.476562 412.996094 L 83.511719 456.953125 C 83.347656 457.746094 82.714844 458.226562 81.917969 458.226562 L 81.597656 458.226562 C 80.722656 458.066406 80.160156 457.269531 80.324219 456.394531 L 93.628906 383.375 L 109.40625 296.820312 L 133.949219 161.847656 C 134.109375 161.132812 134.746094 160.574219 135.542969 160.574219 C 136.339844 160.574219 136.980469 161.132812 137.136719 161.847656 L 140.960938 181.039062 L 200.964844 181.039062 L 197.460938 162.484375 C 197.300781 161.609375 197.859375 160.8125 198.734375 160.652344 C 199.609375 160.496094 200.40625 161.050781 200.566406 161.925781 L 222.640625 277.789062 C 222.800781 278.664062 222.242188 279.460938 221.363281 279.617188 L 221.046875 279.617188 C 220.328125 279.617188 219.613281 279.0625 219.453125 278.34375 Z M 243.757812 409.8125 L 193.078125 409.8125 C 192.199219 409.8125 191.484375 410.527344 191.484375 411.402344 C 191.484375 412.28125 192.199219 412.996094 193.078125 412.996094 L 243.757812 412.996094 C 244.632812 412.996094 245.351562 412.28125 245.351562 411.402344 C 245.351562 410.527344 244.632812 409.8125 243.757812 409.8125 Z M 239.691406 384.570312 L 189.011719 384.570312 C 188.136719 384.570312 187.417969 383.851562 187.417969 382.976562 C 187.417969 382.101562 188.136719 381.382812 189.011719 381.382812 L 239.054688 381.382812 L 234.195312 355.824219 L 191.242188 355.824219 C 190.367188 355.824219 189.652344 355.105469 189.652344 354.230469 C 189.652344 353.355469 190.367188 352.636719 191.242188 352.636719 L 233.636719 352.636719 L 228.695312 326.839844 L 197.378906 326.839844 C 196.503906 326.839844 195.785156 326.121094 195.785156 325.246094 C 195.785156 324.371094 196.503906 323.652344 197.378906 323.652344 L 228.058594 323.652344 L 222.082031 292.519531 C 221.921875 291.640625 222.480469 290.847656 223.355469 290.6875 C 224.234375 290.527344 225.03125 291.085938 225.191406 291.960938 L 245.269531 396.910156 C 245.429688 397.789062 244.871094 398.582031 243.996094 398.742188 L 243.675781 398.742188 C 242.960938 398.742188 242.242188 398.1875 242.082031 397.46875 L 239.691406 384.570312 " fill-opacity="1" fill-rule="nonzero"/><path fill="#ffffff" d="M 443.128906 268.945312 C 441.695312 269.027344 439.703125 269.265625 437.871094 270.460938 C 435.320312 272.132812 434.761719 274.519531 431.894531 280.253906 C 431.097656 281.925781 429.902344 284.15625 428.464844 286.785156 C 425.039062 286.785156 421.136719 286.464844 416.914062 285.75 C 407.667969 284.078125 400.257812 280.8125 395.160156 277.863281 C 395.238281 275.875 395 273.167969 393.246094 270.859375 C 393.085938 270.617188 391.492188 268.628906 390.777344 268.945312 C 389.898438 269.34375 390.535156 272.371094 390.777344 273.566406 C 387.03125 273.167969 386.074219 273.328125 385.996094 273.566406 C 385.914062 273.882812 387.347656 274.28125 388.785156 275.476562 C 390.457031 276.828125 391.332031 278.660156 391.8125 280.175781 C 398.746094 286.703125 405.277344 290.925781 409.980469 293.550781 C 417.710938 297.929688 421.296875 298.410156 423.6875 298.410156 C 429.742188 298.570312 434.523438 296.019531 436.992188 294.347656 M 458.109375 273.722656 C 458.347656 276.113281 458.984375 279.539062 460.660156 283.199219 C 461.933594 286.148438 463.449219 288.457031 464.804688 290.128906 C 466.875 295.542969 468.945312 300.957031 470.9375 306.292969 C 473.011719 313.855469 474.921875 321.660156 476.835938 329.863281 C 478.589844 337.425781 480.101562 344.753906 481.457031 351.917969 C 480.101562 356.9375 479.703125 359.484375 480.183594 359.722656 C 480.5 359.804688 481.140625 359.007812 482.253906 357.175781 C 482.492188 361.238281 483.128906 362.351562 483.6875 362.429688 C 484.804688 362.589844 486.796875 359.085938 486.636719 355.503906 C 486.476562 352.875 485.121094 350.882812 484.324219 350.007812 C 484.484375 343.558594 484.566406 336.632812 484.324219 329.464844 C 484.085938 322.140625 483.6875 315.132812 483.050781 308.523438 C 479.066406 299.363281 476.757812 291.800781 475.402344 286.464844 C 473.570312 279.21875 472.613281 273.167969 467.75 270.378906 C 465.28125 268.945312 462.570312 268.945312 460.820312 269.105469 C 459.78125 270.699219 458.984375 272.210938 458.109375 273.722656 Z M 178.8125 282.402344 C 178.015625 283.757812 176.980469 285.429688 175.464844 287.101562 C 172.996094 289.730469 170.445312 291.402344 168.613281 292.359375 C 172.277344 294.429688 176.980469 296.65625 182.71875 298.328125 C 186.941406 299.605469 190.847656 300.320312 194.191406 300.71875 C 197.140625 301.039062 199.453125 301.433594 201.761719 301.433594 C 209.015625 301.433594 214.511719 298.171875 217.859375 296.257812 C 226.863281 291.003906 231.882812 283.597656 234.355469 279.378906 C 245.03125 275.953125 250.289062 273.804688 250.050781 272.929688 C 249.890625 272.210938 246.226562 272.371094 239.136719 273.246094 C 240.332031 270.539062 240.648438 269.027344 240.089844 268.628906 C 239.136719 267.910156 235.628906 270.699219 229.574219 276.988281 L 205.429688 290.207031 L 194.113281 287.738281 C 189.011719 285.90625 183.914062 284.15625 178.8125 282.402344 Z M 177.539062 250.234375 C 175.066406 249.515625 173.316406 248.402344 172.277344 247.527344 C 172.359375 247.84375 172.835938 249.4375 172.121094 251.03125 C 171.242188 252.941406 169.410156 253.5 169.171875 253.578125 C 168.851562 253.5 167.019531 253.261719 166.304688 254.136719 C 165.507812 255.171875 166.144531 257.558594 168.613281 259.472656 C 169.171875 260.507812 169.96875 262.179688 170.207031 264.566406 C 170.445312 266.71875 170.128906 268.46875 169.808594 269.503906 C 170.925781 271.972656 173.394531 273.40625 175.945312 273.167969 C 178.015625 272.929688 179.847656 271.496094 180.726562 269.503906 C 181.601562 268.789062 182.957031 267.511719 183.914062 265.601562 C 184.472656 264.488281 184.871094 262.976562 184.789062 256.683594 C 184.789062 255.089844 184.710938 253.019531 184.472656 250.472656 C 183.035156 250.792969 180.488281 251.03125 177.539062 250.234375 Z M 442.253906 247.367188 C 441.773438 250.394531 441.855469 252.78125 442.09375 254.453125 C 442.410156 257.480469 442.730469 260.90625 445.359375 263.453125 C 446.238281 264.25 447.113281 264.804688 447.671875 265.046875 L 447.671875 269.105469 L 443.847656 269.105469 C 445.121094 271.734375 447.589844 273.484375 450.460938 273.644531 C 453.648438 273.804688 456.59375 272.050781 458.03125 269.105469 C 457.390625 268.390625 456.515625 267.195312 455.796875 265.523438 C 455.160156 263.851562 455.082031 262.417969 455 261.542969 C 456.4375 259.710938 457.871094 257.878906 459.304688 256.125 C 460.5 255.648438 461.058594 254.136719 460.421875 253.101562 C 459.863281 251.984375 458.347656 251.585938 457.234375 252.304688 C 455.878906 252.621094 452.851562 253.179688 449.183594 251.984375 C 445.359375 250.792969 443.128906 248.402344 442.253906 247.367188 Z M 159.769531 149.742188 C 162.558594 151.253906 166.304688 153.085938 171.082031 154.199219 C 174.511719 155.078125 177.617188 155.394531 180.246094 155.554688 C 180.886719 154.835938 181.839844 153.722656 182.796875 152.289062 C 186.464844 146.875 187.5 141.382812 188.457031 131.984375 C 189.09375 125.933594 189.570312 118.527344 189.652344 110.167969 C 190.128906 108.972656 190.847656 107.140625 191.644531 104.910156 C 193.238281 100.371094 193.316406 99.417969 192.917969 99.097656 C 192.597656 98.859375 191.800781 98.699219 189.410156 100.371094 C 190.207031 96.46875 189.96875 93.605469 188.773438 93.125 C 187.5 92.648438 185.347656 94.878906 184.3125 96.550781 C 181.203125 101.644531 183.832031 108.253906 184.628906 110.085938 C 180.328125 123.144531 176.023438 136.285156 171.640625 149.34375 L 168.691406 144.246094 C 165.746094 146.078125 162.796875 147.910156 159.769531 149.742188 Z M 146.300781 139.949219 C 143.59375 143.214844 140.964844 146.558594 138.253906 149.820312 C 141.363281 152.210938 145.1875 154.917969 149.808594 157.386719 C 154.75 160.011719 159.289062 161.84375 163.195312 163.117188 C 166.703125 163.914062 170.765625 164.550781 175.226562 164.867188 C 186.78125 165.507812 197.21875 162.796875 204.3125 160.488281 C 207.023438 160.886719 211.40625 161.046875 216.34375 159.375 C 218.257812 158.742188 222.320312 156.988281 222.082031 155.953125 C 221.921875 155.234375 219.929688 154.519531 210.765625 154.996094 C 211.484375 151.015625 211.164062 149.980469 210.765625 149.820312 C 210.210938 149.585938 209.332031 151.015625 207.5 152.6875 C 205.746094 154.28125 203.992188 155.316406 202.71875 155.953125 C 199.769531 156.113281 195.46875 156.191406 190.289062 156.113281 C 182.558594 156.03125 178.574219 155.953125 173.792969 154.996094 C 170.367188 154.28125 165.425781 152.929688 159.609375 149.820312 Z M 144.628906 105.152344 C 142.078125 104.273438 140.484375 102.761719 139.769531 101.964844 C 140.085938 104.910156 138.890625 107.457031 136.898438 108.253906 C 136.5 108.414062 135.625 108.652344 134.507812 108.496094 C 134.347656 108.574219 132.753906 109.210938 132.4375 110.566406 C 132.039062 112.078125 133.234375 114.066406 135.464844 114.625 C 135.703125 116.140625 135.785156 118.050781 135.542969 120.28125 C 135.304688 122.269531 134.90625 123.941406 134.507812 125.214844 C 135.941406 127.921875 138.8125 129.4375 141.519531 128.878906 C 144.546875 128.320312 145.902344 125.535156 146.0625 125.214844 L 146.0625 121.234375 C 147.097656 120.917969 148.691406 120.199219 149.96875 118.605469 C 151.480469 116.695312 151.640625 114.546875 151.71875 111.597656 C 151.800781 110.085938 151.800781 107.9375 151.320312 105.308594 C 150.285156 105.625 147.65625 106.1875 144.628906 105.152344 Z M 366.550781 269.980469 L 366.550781 216.074219 C 366.550781 212.96875 364.082031 210.5 360.972656 210.5 L 235.550781 210.5 C 232.441406 210.5 229.972656 212.96875 229.972656 216.074219 L 229.972656 269.980469 C 229.972656 273.085938 232.441406 275.554688 235.550781 275.554688 L 360.894531 275.554688 C 364 275.554688 366.550781 273.085938 366.550781 269.980469 Z M 207.660156 288.613281 L 201.046875 285.589844 L 195.867188 287.898438 L 205.347656 290.207031 Z M 228.296875 277.625 L 229.972656 267.832031 L 232.761719 257.082031 L 232.917969 254.375 L 232.042969 254.535156 L 229.652344 257.640625 L 230.371094 249.199219 L 229.09375 248.003906 L 226.625 252.621094 L 225.109375 258.355469 L 225.429688 266.71875 L 221.921875 275.398438 L 219.132812 282.246094 Z M 153.632812 339.816406 L 164.949219 371.429688 L 149.171875 441.582031 L 161.203125 443.652344 L 175.148438 403.757812 L 185.425781 443.652344 L 197.460938 442.617188 L 186.464844 367.605469 L 195.785156 336.074219 Z M 156.660156 442.855469 L 150.683594 441.820312 L 145.425781 456.632812 L 153.632812 456.632812 L 157.21875 442.933594 M 186.78125 443.574219 L 188.855469 456.074219 L 197.539062 456.074219 L 194.75 442.933594 Z M 434.839844 333.683594 L 437.871094 394.28125 L 447.988281 441.34375 L 460.421875 440.226562 L 459.382812 398.023438 L 488.949219 439.113281 L 498.75 432.980469 L 479.386719 399.457031 L 471.257812 368.003906 L 470.382812 339.496094 Z M 139.6875 304.621094 L 139.6875 316.324219 L 145.824219 316.324219 L 146.9375 304.621094 Z M 131.242188 304.621094 L 129.964844 316.324219 L 122.875 316.324219 L 122.875 304.621094 L 131.242188 304.621094 " fill-opacity="1" fill-rule="nonzero"/><path fill="#0f0e0c" d="M 145.34375 315.847656 L 140.246094 315.847656 L 140.246094 305.257812 L 146.382812 305.257812 Z M 129.488281 315.847656 L 123.351562 315.847656 L 123.351562 305.257812 L 130.605469 305.257812 Z M 160.566406 191.386719 C 160.246094 191.386719 160.007812 191.546875 160.007812 191.867188 L 155.464844 250.3125 L 147.65625 304.222656 L 138.492188 304.222656 L 138.492188 268.390625 L 141.757812 244.660156 L 143.035156 220.132812 C 143.035156 219.816406 142.796875 219.578125 142.554688 219.578125 C 142.238281 219.578125 142 219.816406 142 220.054688 L 140.722656 244.5 L 132.515625 304.222656 L 121.679688 304.222656 L 121.679688 253.101562 L 120.5625 198.714844 C 120.5625 198.394531 120.324219 198.238281 120.003906 198.15625 C 119.6875 198.15625 119.449219 198.394531 119.449219 198.714844 L 120.5625 253.101562 L 120.5625 304.78125 C 120.5625 305.097656 120.800781 305.335938 121.121094 305.335938 L 122.316406 305.335938 L 122.316406 316.484375 C 122.316406 316.804688 122.554688 317.042969 122.875 317.042969 L 129.964844 317.042969 C 130.207031 317.042969 130.445312 316.804688 130.523438 316.566406 L 131.800781 305.335938 L 133.074219 305.335938 C 133.3125 305.335938 133.550781 305.179688 133.632812 304.859375 L 137.535156 276.273438 L 137.535156 304.78125 C 137.535156 305.097656 137.777344 305.335938 138.09375 305.335938 L 139.289062 305.335938 L 139.289062 316.484375 C 139.289062 316.804688 139.527344 317.042969 139.847656 317.042969 L 145.984375 317.042969 C 146.222656 317.042969 146.460938 316.804688 146.539062 316.566406 L 147.65625 305.335938 L 148.292969 305.335938 C 148.53125 305.335938 148.773438 305.179688 148.851562 304.859375 L 156.742188 250.472656 L 161.28125 192.027344 C 161.042969 191.707031 160.804688 191.386719 160.566406 191.386719 " fill-opacity="1" fill-rule="nonzero"/><path fill="#3784ba" d="M 385.914062 393.882812 L 267.742188 393.882812 L 267.742188 412.996094 L 385.914062 412.996094 Z M 367.984375 423.347656 L 352.6875 423.347656 L 352.6875 465.710938 L 366.949219 465.710938 L 438.667969 464.355469 L 438.667969 423.347656 Z M 351.332031 414.585938 L 441.375 414.585938 L 441.375 421.195312 L 351.332031 421.195312 L 351.332031 414.585938 " fill-opacity="1" fill-rule="nonzero"/><path fill="#0f0e0c" d="M 294.914062 137.082031 L 289.175781 91.457031 C 288.699219 87.792969 285.351562 85.246094 281.765625 85.722656 L 190.367188 97.191406 C 190.367188 97.90625 190.289062 98.625 190.128906 99.421875 C 191.640625 98.542969 192.679688 98.304688 193.234375 98.863281 C 193.953125 99.421875 193.875 100.292969 192.121094 105.230469 C 191.484375 106.984375 190.84375 108.738281 190.207031 110.40625 C 190.128906 117.65625 189.730469 124.980469 189.011719 132.144531 C 188.058594 141.703125 186.941406 147.199219 183.277344 152.691406 C 182.71875 153.570312 182.082031 154.363281 181.363281 155.238281 C 183.832031 155.398438 186.621094 155.398438 190.527344 155.476562 C 194.671875 155.558594 198.8125 155.476562 202.796875 155.320312 C 204.472656 154.523438 205.984375 153.40625 207.339844 152.210938 C 207.976562 151.578125 208.535156 151.019531 209.015625 150.542969 C 209.890625 149.585938 210.449219 148.949219 211.164062 149.265625 C 211.882812 149.507812 212.203125 150.542969 211.644531 154.285156 L 289.257812 144.488281 C 291.011719 144.25 292.605469 143.375 293.640625 141.941406 C 294.675781 140.589844 295.152344 138.835938 294.914062 137.082031 Z M 294.4375 142.65625 C 293.160156 144.25 291.328125 145.285156 289.335938 145.605469 L 219.453125 154.441406 C 222.242188 154.683594 222.71875 155.238281 222.800781 155.875 C 223.117188 157.46875 219.132812 159.0625 216.742188 159.9375 C 212.917969 161.289062 208.773438 161.6875 204.550781 161.128906 C 195.308594 164.15625 186.941406 165.589844 178.894531 165.589844 C 177.699219 165.589844 176.503906 165.589844 175.308594 165.507812 C 171.242188 165.269531 167.179688 164.714844 163.117188 163.757812 C 158.414062 162.246094 153.871094 160.257812 149.570312 157.949219 C 145.503906 155.71875 141.601562 153.171875 137.933594 150.300781 C 137.695312 150.144531 137.695312 149.824219 137.855469 149.585938 C 138.015625 149.347656 138.332031 149.347656 138.574219 149.507812 C 142.15625 152.292969 146.0625 154.839844 150.046875 156.992188 C 154.269531 159.300781 158.8125 161.210938 163.355469 162.722656 C 167.257812 163.597656 171.242188 164.15625 175.308594 164.394531 C 184.230469 164.871094 193.714844 163.4375 204.234375 160.015625 L 204.472656 160.015625 C 208.617188 160.570312 212.601562 160.175781 216.265625 158.902344 C 219.371094 157.785156 221.605469 156.515625 221.683594 156.035156 C 221.605469 155.875 220.566406 155.082031 210.925781 155.558594 C 210.765625 155.558594 210.609375 155.476562 210.527344 155.398438 C 210.449219 155.320312 210.449219 155.238281 210.449219 155.082031 L 210.449219 154.921875 C 211.007812 151.65625 210.847656 150.699219 210.765625 150.382812 C 210.527344 150.542969 210.128906 150.941406 209.8125 151.339844 C 209.332031 151.816406 208.773438 152.453125 208.058594 153.089844 C 206.625 154.441406 204.949219 155.558594 203.117188 156.433594 C 203.039062 156.433594 202.957031 156.515625 202.878906 156.515625 C 198.734375 156.671875 194.589844 156.753906 190.367188 156.671875 C 182.878906 156.59375 178.734375 156.515625 173.792969 155.476562 C 168.933594 154.441406 164.070312 152.691406 159.449219 150.222656 L 145.902344 140.429688 C 145.664062 140.269531 145.585938 139.949219 145.824219 139.710938 C 145.984375 139.472656 146.300781 139.394531 146.539062 139.632812 L 160.007812 149.425781 C 164.46875 151.816406 169.171875 153.488281 173.953125 154.523438 C 175.945312 154.921875 177.777344 155.160156 179.847656 155.320312 C 180.726562 154.363281 181.441406 153.328125 182.160156 152.292969 C 185.746094 146.957031 186.78125 141.542969 187.738281 132.226562 C 188.453125 125.0625 188.851562 117.734375 188.933594 110.488281 L 188.933594 110.328125 C 189.648438 108.65625 190.289062 106.90625 190.925781 105.152344 C 191.402344 103.878906 192.597656 100.375 192.359375 99.898438 C 192.359375 99.898438 191.800781 99.65625 189.492188 101.25 C 189.332031 101.410156 189.09375 101.410156 188.933594 101.25 C 188.773438 101.089844 188.695312 100.933594 188.695312 100.691406 C 189.492188 96.792969 189.09375 94.324219 188.375 94.003906 C 187.660156 93.6875 185.746094 95.277344 184.550781 97.269531 C 181.683594 101.808594 183.832031 107.941406 184.871094 110.328125 C 184.949219 110.488281 184.949219 110.570312 184.871094 110.726562 L 172.199219 149.746094 C 172.121094 149.90625 171.960938 150.0625 171.722656 150.144531 C 171.480469 150.144531 171.324219 150.0625 171.242188 149.90625 L 168.292969 144.808594 C 168.136719 144.570312 168.214844 144.25 168.453125 144.089844 C 168.691406 143.933594 169.011719 144.011719 169.171875 144.25 L 171.5625 148.3125 L 184.074219 110.328125 C 183.035156 107.941406 181.285156 102.765625 183.035156 98.226562 L 158.414062 101.25 C 157.378906 101.410156 156.34375 101.808594 155.464844 102.367188 C 155.386719 102.445312 155.304688 102.445312 155.148438 102.445312 C 154.988281 102.445312 154.828125 102.367188 154.75 102.207031 C 154.589844 101.96875 154.667969 101.648438 154.90625 101.488281 C 155.945312 100.773438 157.140625 100.292969 158.335938 100.136719 L 182.957031 97.03125 C 183.195312 97.03125 183.355469 97.109375 183.433594 97.269531 C 183.59375 96.953125 183.753906 96.710938 183.914062 96.394531 C 185.027344 94.644531 187.339844 92.09375 189.011719 92.730469 C 189.890625 93.050781 190.367188 94.246094 190.445312 96.074219 L 281.605469 84.691406 C 285.832031 84.128906 289.65625 87.15625 290.214844 91.378906 L 295.949219 137.003906 C 296.269531 138.996094 295.710938 140.988281 294.4375 142.65625 Z M 132.914062 110.726562 C 132.597656 112 133.632812 113.671875 135.625 114.152344 C 135.863281 114.230469 135.941406 114.390625 136.023438 114.628906 C 136.261719 116.542969 136.339844 118.53125 136.101562 120.441406 C 135.941406 122.191406 135.542969 123.867188 135.066406 125.460938 C 134.988281 125.699219 134.746094 125.855469 134.589844 125.855469 L 134.429688 125.855469 C 134.109375 125.777344 134.03125 125.460938 134.109375 125.21875 C 134.589844 123.625 134.988281 122.035156 135.144531 120.359375 C 135.304688 118.609375 135.304688 116.859375 135.066406 115.183594 C 132.753906 114.390625 131.558594 112.160156 131.957031 110.570312 C 132.355469 108.976562 134.03125 108.257812 134.429688 108.097656 C 134.507812 108.097656 134.589844 108.019531 134.746094 108.097656 C 135.542969 108.257812 136.261719 108.179688 136.898438 107.941406 C 138.652344 107.222656 139.6875 104.832031 139.449219 102.207031 C 139.449219 101.96875 139.527344 101.730469 139.765625 101.648438 C 140.007812 101.570312 140.246094 101.570312 140.40625 101.808594 C 141.28125 102.765625 142.796875 104.039062 145.027344 104.832031 C 147.816406 105.792969 150.207031 105.394531 151.480469 105.074219 C 151.640625 105.074219 151.800781 105.074219 151.878906 105.152344 C 152.039062 105.230469 152.117188 105.394531 152.117188 105.472656 C 152.4375 107.222656 152.597656 108.894531 152.597656 110.648438 C 152.914062 110.648438 153.15625 110.804688 153.15625 111.125 L 155.148438 126.894531 C 155.148438 127.210938 154.988281 127.449219 154.667969 127.449219 L 154.589844 127.449219 C 154.351562 127.449219 154.109375 127.292969 154.03125 126.96875 L 152.359375 113.832031 C 152.199219 115.902344 151.800781 117.65625 150.605469 119.246094 C 149.648438 120.441406 148.375 121.320312 146.859375 121.953125 L 146.859375 125.539062 C 146.859375 125.855469 146.621094 126.097656 146.300781 126.097656 C 145.984375 126.097656 145.742188 125.855469 145.742188 125.539062 L 145.742188 121.554688 C 145.742188 121.320312 145.902344 121.15625 146.140625 121.078125 C 147.65625 120.601562 148.929688 119.726562 149.808594 118.609375 C 151.242188 116.777344 151.320312 114.710938 151.480469 111.839844 C 151.5625 110.007812 151.480469 108.097656 151.164062 106.191406 C 149.726562 106.507812 147.335938 106.746094 144.707031 105.867188 C 142.953125 105.3125 141.601562 104.359375 140.644531 103.480469 C 140.5625 106.027344 139.367188 108.179688 137.457031 108.976562 C 136.660156 109.292969 135.785156 109.375 134.90625 109.214844 C 134.191406 109.214844 133.152344 109.691406 132.914062 110.726562 " fill-opacity="1" fill-rule="nonzero"/><path fill="#0f0e0c" d="M 483.925781 359.007812 C 488.46875 359.644531 492.214844 363.386719 493.011719 368.242188 L 471.816406 368.242188 C 472.929688 362.429688 478.351562 358.289062 483.925781 359.007812 Z M 496.199219 368.242188 L 494.046875 368.242188 L 494.046875 368.164062 C 493.171875 362.828125 489.027344 358.609375 484.007812 357.972656 C 477.871094 357.175781 471.894531 361.714844 470.699219 368.164062 L 470.699219 368.242188 L 468.789062 368.242188 L 468.789062 372.625 L 471.179688 372.625 L 471.179688 399.378906 L 493.488281 399.378906 L 493.488281 372.625 L 496.199219 372.625 L 496.199219 368.242188 " fill-opacity="1" fill-rule="nonzero"/><path fill="#0f0e0c" d="M 374.28125 242.351562 L 374.28125 243.066406 C 374.28125 243.703125 374.199219 244.339844 374.121094 244.898438 L 374.121094 245.058594 C 373.882812 244.183594 373.800781 243.226562 373.722656 242.269531 L 374.28125 242.269531 Z M 373.722656 241.078125 C 373.800781 240.199219 373.882812 239.246094 374.121094 238.371094 L 374.121094 238.527344 C 374.199219 239.246094 374.28125 240.042969 374.28125 240.757812 L 374.28125 241.234375 L 373.722656 241.234375 Z M 404.082031 241.394531 C 404.082031 239.644531 403.921875 237.8125 403.605469 236.140625 C 403.523438 235.902344 403.367188 235.742188 403.046875 235.742188 L 374.121094 235.742188 C 374.042969 235.742188 374.042969 235.820312 373.960938 235.902344 L 373.882812 235.980469 C 373.164062 237.574219 372.765625 239.324219 372.6875 241.078125 L 372.6875 241.316406 L 371.96875 241.316406 C 371.652344 241.316406 371.414062 241.554688 371.414062 241.871094 C 371.414062 242.191406 371.652344 242.429688 371.96875 242.429688 L 372.6875 242.429688 C 372.765625 244.183594 373.164062 246.015625 373.882812 247.6875 C 373.882812 247.6875 373.882812 247.765625 373.960938 247.765625 L 374.042969 247.84375 L 374.121094 247.925781 C 374.199219 248.003906 374.28125 248.003906 374.359375 248.003906 L 403.046875 248.003906 C 403.285156 248.003906 403.523438 247.84375 403.605469 247.605469 C 403.84375 246.09375 404.082031 244.582031 404.082031 243.066406 C 405.039062 244.339844 406.472656 246.730469 405.835938 249.597656 C 405.675781 250.472656 405.277344 251.347656 404.71875 252.226562 C 404.082031 253.179688 402.96875 253.816406 401.691406 253.816406 L 391.015625 253.898438 C 389.261719 253.898438 387.90625 255.25 387.828125 257.003906 L 387.746094 263.371094 L 386.632812 263.371094 L 386.632812 273.644531 L 390.617188 273.644531 L 390.617188 263.371094 L 388.785156 263.371094 L 388.863281 257.003906 C 388.863281 255.808594 389.820312 254.933594 390.933594 254.933594 L 401.613281 254.851562 C 403.207031 254.851562 404.640625 254.054688 405.515625 252.78125 C 406.15625 251.828125 406.554688 250.871094 406.792969 249.835938 C 407.75 245.375 404.800781 242.113281 404.082031 241.394531 " fill-opacity="1" fill-rule="nonzero"/><path fill="#0f0e0c" d="M 438.109375 413.550781 L 364.796875 413.550781 L 364.796875 419.125 L 438.109375 419.125 Z M 435.480469 420.160156 L 364.796875 420.160156 L 364.796875 461.410156 L 435.480469 460.054688 Z M 363.683594 413.550781 L 349.179688 413.550781 L 349.179688 419.125 L 363.683594 419.125 Z M 363.683594 420.160156 L 350.453125 420.160156 L 350.453125 461.488281 L 363.683594 461.488281 Z M 439.222656 412.996094 L 439.222656 419.605469 C 439.222656 419.921875 438.984375 420.160156 438.667969 420.160156 L 436.515625 420.160156 L 436.515625 460.613281 C 436.515625 460.929688 436.277344 461.171875 435.957031 461.171875 L 364.242188 462.523438 L 349.898438 462.523438 C 349.578125 462.523438 349.339844 462.285156 349.339844 461.964844 L 349.339844 460.453125 L 256.664062 460.453125 C 248.9375 460.453125 242.640625 454.164062 242.640625 446.4375 L 242.640625 276.988281 C 242.640625 276.671875 242.878906 276.433594 243.199219 276.433594 C 243.519531 276.433594 243.757812 276.671875 243.757812 276.988281 L 243.757812 446.519531 C 243.757812 453.683594 249.574219 459.5 256.746094 459.5 L 349.417969 459.5 L 349.417969 428.363281 L 254.433594 428.363281 C 254.117188 428.363281 253.875 428.125 253.875 427.804688 L 253.875 275.554688 C 253.875 275.238281 254.117188 275 254.433594 275 C 254.753906 275 254.992188 275.238281 254.992188 275.554688 L 254.992188 427.328125 L 349.417969 427.328125 L 349.417969 420.242188 L 348.703125 420.242188 C 348.382812 420.242188 348.144531 420.003906 348.144531 419.683594 L 348.144531 413.074219 C 348.144531 412.757812 348.382812 412.515625 348.703125 412.515625 L 400.019531 412.515625 L 400.019531 287.5 C 400.257812 287.738281 400.578125 287.820312 400.976562 287.820312 L 401.054688 287.820312 L 401.054688 412.515625 L 438.746094 412.515625 C 438.984375 412.515625 439.222656 412.757812 439.222656 412.996094 Z M 242.640625 175.066406 L 242.640625 209.941406 C 242.640625 210.261719 242.878906 210.5 243.199219 210.5 C 243.519531 210.5 243.757812 210.261719 243.757812 209.941406 L 243.757812 175.066406 C 243.757812 167.898438 249.574219 162.085938 256.746094 162.085938 L 398.265625 162.085938 C 405.4375 162.085938 411.253906 167.898438 411.253906 175.066406 L 411.253906 282.402344 C 411.253906 282.722656 411.492188 282.960938 411.8125 282.960938 C 412.132812 282.960938 412.371094 282.722656 412.371094 282.402344 L 412.371094 175.066406 C 412.371094 167.339844 406.074219 161.050781 398.347656 161.050781 L 256.664062 161.050781 C 248.9375 161.050781 242.640625 167.339844 242.640625 175.066406 Z M 412.210938 295.066406 L 412.210938 411.402344 C 412.210938 411.722656 411.972656 411.960938 411.652344 411.960938 C 411.335938 411.960938 411.09375 411.722656 411.09375 411.402344 L 411.09375 295.066406 C 411.09375 294.746094 411.335938 294.507812 411.652344 294.507812 C 411.972656 294.507812 412.210938 294.746094 412.210938 295.066406 " fill-opacity="1" fill-rule="nonzero"/><path fill="#0f0e0c" d="M 344.320312 246.730469 C 344.320312 247.605469 343.601562 248.324219 342.726562 248.324219 L 282.960938 248.324219 C 282.085938 248.324219 281.367188 247.605469 281.367188 246.730469 C 281.367188 245.855469 282.085938 245.136719 282.960938 245.136719 L 342.726562 245.136719 C 343.601562 245.136719 344.320312 245.855469 344.320312 246.730469 Z M 338.023438 444.527344 C 338.023438 449.941406 333.640625 454.324219 328.222656 454.324219 C 322.804688 454.324219 318.421875 449.941406 318.421875 444.527344 C 318.421875 439.113281 322.804688 434.734375 328.222656 434.734375 C 333.640625 434.734375 338.023438 439.113281 338.023438 444.527344 Z M 344.320312 258.117188 L 344.320312 258.59375 C 344.320312 259.3125 343.683594 259.949219 342.964844 259.949219 L 282.722656 259.949219 C 282.003906 259.949219 281.367188 259.3125 281.367188 258.59375 L 281.367188 258.117188 C 281.367188 257.402344 282.003906 256.761719 282.722656 256.761719 L 342.964844 256.761719 C 343.683594 256.761719 344.320312 257.402344 344.320312 258.117188 Z M 344.320312 236.140625 C 344.320312 237.015625 343.601562 237.730469 342.726562 237.730469 L 282.960938 237.730469 C 282.085938 237.730469 281.367188 237.015625 281.367188 236.140625 C 281.367188 235.265625 282.085938 234.546875 282.960938 234.546875 L 342.726562 234.546875 C 343.601562 234.546875 344.320312 235.265625 344.320312 236.140625 Z M 451.8125 441.023438 L 459.464844 440.308594 L 459.464844 460.054688 L 438.90625 460.054688 C 438.746094 459.65625 438.585938 459.019531 438.824219 458.464844 C 439.464844 456.710938 442.492188 456.710938 446.554688 455.675781 C 448.148438 455.277344 450.300781 454.640625 452.851562 453.605469 C 452.53125 449.304688 452.132812 445.164062 451.816406 441.023438 Z M 507.753906 448.828125 L 498.75 460.691406 L 489.1875 460.691406 C 489.347656 460.136719 489.585938 459.339844 490.144531 458.464844 C 491.578125 456.074219 493.488281 455.515625 494.84375 454.164062 C 496.039062 453.046875 497.316406 451.136719 497.472656 447.15625 C 495.164062 444.128906 492.851562 441.105469 490.542969 438 C 492.851562 436.566406 495.164062 435.050781 497.472656 433.617188 C 500.902344 438.714844 504.328125 443.730469 507.753906 448.828125 Z M 239.292969 223.636719 L 270.691406 223.636719 L 270.691406 260.746094 L 239.292969 260.746094 Z M 401.054688 182.550781 L 401.054688 280.96875 C 400.816406 280.652344 400.496094 280.414062 400.019531 280.414062 L 400.019531 196.40625 L 254.992188 196.40625 L 254.992188 210.417969 C 254.992188 210.738281 254.753906 210.976562 254.433594 210.976562 C 254.117188 210.976562 253.875 210.738281 253.875 210.417969 L 253.875 182.46875 C 253.875 182.152344 254.117188 181.914062 254.433594 181.914062 L 400.496094 181.914062 C 400.816406 181.992188 401.054688 182.230469 401.054688 182.550781 Z M 487.671875 299.523438 C 486.636719 301.035156 484.882812 303.425781 481.855469 304.9375 C 478.746094 297.375 476.835938 291.003906 475.640625 286.386719 C 473.808594 279.140625 472.851562 273.085938 467.992188 270.300781 C 465.441406 268.867188 462.8125 268.867188 461.058594 269.027344 L 458.347656 269.027344 C 457.710938 268.308594 456.835938 267.117188 456.117188 265.441406 C 455.480469 263.769531 455.398438 262.335938 455.320312 261.460938 C 456.753906 259.628906 458.1875 257.796875 459.625 256.046875 C 460.820312 255.570312 461.375 254.054688 460.738281 253.019531 C 460.179688 251.90625 458.667969 251.507812 457.550781 252.226562 C 456.195312 252.542969 453.167969 253.101562 449.503906 251.90625 C 445.679688 250.710938 443.367188 248.324219 442.492188 247.289062 C 442.011719 250.3125 442.09375 252.703125 442.332031 254.375 C 442.652344 257.402344 442.96875 260.824219 445.597656 263.371094 C 446.476562 264.167969 447.351562 264.726562 447.910156 264.964844 L 447.910156 269.027344 L 444.085938 269.027344 C 443.765625 269.027344 443.367188 268.945312 443.050781 268.945312 C 442.652344 269.503906 442.253906 270.140625 441.855469 270.859375 C 441.613281 270.460938 441.375 270.0625 441.136719 269.664062 L 440.898438 269.1875 C 440.261719 267.511719 439.542969 265.363281 439.222656 262.894531 C 438.585938 258.117188 439.542969 254.214844 440.261719 251.828125 C 437.871094 248.722656 437.074219 245.058594 438.507812 242.191406 C 438.746094 241.792969 439.703125 239.800781 441.695312 239.085938 C 443.605469 238.449219 445.042969 239.40625 447.832031 240.28125 C 454.207031 242.351562 456.277344 240.597656 458.667969 242.667969 C 459.703125 243.625 461.058594 245.457031 461.058594 249.675781 C 463.289062 250.550781 466.476562 252.226562 469.1875 255.25 C 473.171875 259.789062 472.054688 262.972656 474.921875 267.511719 C 479.863281 275.15625 487.035156 272.050781 490.78125 278.582031 C 494.765625 285.429688 490.859375 294.90625 487.671875 299.523438 Z M 282.644531 226.824219 C 281.925781 226.824219 281.367188 226.265625 281.367188 225.550781 C 281.367188 224.832031 281.925781 224.273438 282.644531 224.273438 L 320.335938 224.273438 C 321.050781 224.273438 321.609375 224.832031 321.609375 225.550781 C 321.609375 226.265625 321.050781 226.824219 320.335938 226.824219 Z M 206.625 107.140625 C 206.542969 106.421875 207.023438 105.789062 207.738281 105.707031 L 245.109375 101.011719 C 245.828125 100.929688 246.464844 101.410156 246.546875 102.125 C 246.625 102.839844 246.148438 103.476562 245.429688 103.558594 L 208.058594 108.253906 C 207.421875 108.335938 206.78125 107.777344 206.625 107.140625 Z M 209.332031 115.902344 L 268.617188 108.496094 C 269.496094 108.414062 270.292969 108.972656 270.371094 109.847656 C 270.449219 110.726562 269.894531 111.519531 269.015625 111.597656 L 209.730469 119.003906 C 208.855469 119.085938 208.058594 118.527344 207.976562 117.652344 C 207.898438 116.773438 208.535156 115.976562 209.332031 115.902344 Z M 212.359375 462.125 L 188.855469 462.125 L 188.855469 455.996094 L 197.539062 455.996094 C 201.363281 456.949219 204.390625 457.746094 206.863281 458.304688 C 207.578125 458.464844 208.855469 458.703125 210.210938 459.738281 C 211.246094 460.535156 211.960938 461.488281 212.359375 462.125 Z M 271.726562 120.359375 C 271.804688 121.238281 271.246094 122.03125 270.371094 122.113281 L 211.085938 129.515625 C 210.210938 129.597656 209.414062 129.039062 209.332031 128.164062 C 209.253906 127.289062 209.8125 126.492188 210.6875 126.414062 L 269.972656 119.007812 C 270.847656 118.847656 271.644531 119.484375 271.726562 120.359375 Z M 271.644531 130.476562 C 272.363281 130.394531 273.082031 130.871094 273.160156 131.667969 L 273.238281 132.144531 C 273.320312 132.863281 272.839844 133.578125 272.042969 133.660156 L 212.28125 141.144531 C 211.5625 141.226562 210.847656 140.746094 210.765625 139.949219 L 210.6875 139.46875 C 210.609375 138.753906 211.085938 138.039062 211.882812 137.957031 Z M 168.292969 462.128906 L 144.707031 462.128906 L 145.503906 456.632812 L 153.632812 456.632812 C 155.863281 457.429688 157.777344 457.828125 159.050781 458.066406 C 162.160156 458.546875 163.753906 458.304688 165.664062 459.5 C 167.019531 460.296875 167.816406 461.410156 168.292969 462.128906 Z M 189.570312 251.273438 C 187.816406 252.945312 185.1875 252.546875 184.789062 252.464844 C 184.789062 251.828125 184.710938 251.191406 184.628906 250.554688 C 183.277344 250.792969 180.726562 251.03125 177.699219 250.15625 C 175.226562 249.441406 173.472656 248.324219 172.4375 247.449219 C 172.519531 247.769531 172.996094 249.28125 172.277344 250.953125 C 171.402344 252.863281 169.570312 253.421875 169.332031 253.5 C 169.011719 253.421875 167.179688 253.183594 166.460938 254.058594 C 165.664062 255.09375 166.300781 257.484375 168.773438 259.394531 C 169.171875 260.109375 169.730469 261.226562 170.046875 262.660156 C 169.011719 262.101562 165.664062 260.191406 164.070312 256.207031 C 162.398438 252.066406 162.796875 246.414062 165.902344 243.785156 C 168.613281 241.476562 170.84375 243.707031 177.9375 240.917969 C 180.089844 240.042969 181.042969 239.40625 182.878906 239.488281 C 183.117188 239.488281 187.578125 239.726562 189.652344 243.46875 C 190.765625 245.539062 191.722656 249.203125 189.570312 251.273438 Z M 130.761719 115.503906 C 127.097656 111.203125 125.582031 103.480469 129.089844 100.453125 C 129.648438 99.976562 131.242188 98.78125 134.90625 99.179688 C 136.820312 95.199219 140.722656 92.652344 144.707031 92.730469 C 149.171875 92.808594 153.394531 96.3125 154.667969 101.171875 C 154.90625 101.96875 155.066406 102.84375 155.066406 103.71875 C 153.953125 105.070312 152.835938 106.425781 151.800781 107.699219 C 151.71875 106.902344 151.640625 106.109375 151.480469 105.152344 C 150.445312 105.46875 147.816406 105.949219 144.789062 104.914062 C 142.238281 104.035156 140.644531 102.523438 139.925781 101.726562 C 140.246094 104.671875 139.050781 107.222656 137.058594 108.019531 C 136.660156 108.179688 135.785156 108.417969 134.667969 108.257812 C 134.507812 108.339844 132.914062 108.976562 132.597656 110.328125 C 132.199219 111.839844 133.394531 113.832031 135.625 114.386719 C 135.785156 115.582031 135.941406 117.097656 135.785156 118.847656 C 134.507812 118.609375 132.4375 117.574219 130.761719 115.503906 Z M 158.8125 319.671875 C 157.457031 318.476562 155.785156 318.558594 153.710938 318.320312 C 151.71875 318.160156 148.929688 317.683594 145.425781 316.40625 L 139.128906 316.40625 L 139.128906 318.558594 C 138.414062 318.476562 137.695312 318.398438 136.820312 318.320312 C 134.828125 318.160156 132.039062 317.683594 128.613281 316.40625 L 122.316406 316.40625 L 122.316406 323.652344 L 160.484375 323.652344 C 160.40625 322.460938 160.085938 320.789062 158.8125 319.671875 Z M 465.203125 289.972656 C 467.195312 295.304688 469.265625 300.640625 471.257812 305.976562 C 469.34375 305.816406 466.875 305.417969 464.085938 304.621094 C 463.6875 302.632812 463.449219 300.164062 463.6875 297.21875 C 463.925781 294.269531 464.5625 291.800781 465.203125 289.972656 " fill-opacity="1" fill-rule="nonzero"/><path fill="#0f0e0c" d="M 365.992188 267.59375 C 365.992188 271.652344 362.648438 275 358.582031 275 L 247.980469 275 C 250.6875 273.722656 250.53125 273.246094 250.449219 272.847656 C 250.289062 272.210938 250.132812 271.335938 239.851562 272.609375 C 240.886719 270.0625 241.046875 268.707031 240.25 268.152344 C 239.453125 267.59375 237.941406 267.910156 232.679688 272.847656 C 231.246094 271.414062 230.371094 269.582031 230.371094 267.511719 C 230.371094 267.273438 230.210938 267.117188 230.050781 267.035156 C 230.609375 265.285156 231.167969 263.53125 231.722656 261.78125 C 233.476562 255.648438 233.796875 254.054688 232.839844 253.578125 C 232.363281 253.339844 231.804688 253.417969 229.972656 255.886719 C 230.527344 251.191406 230.527344 249.121094 230.289062 248.164062 C 230.371094 248.085938 230.371094 248.003906 230.371094 247.84375 L 230.371094 218.144531 C 230.371094 214.082031 233.714844 210.738281 237.78125 210.738281 L 358.421875 210.738281 C 362.488281 210.738281 365.835938 214.082031 365.835938 218.144531 L 365.835938 267.59375 Z M 229.175781 276.589844 L 228.695312 276.828125 L 229.730469 269.664062 C 230.128906 271.175781 230.925781 272.609375 232.042969 273.722656 C 231.167969 274.519531 230.210938 275.476562 229.175781 276.589844 Z M 220.089844 281.527344 L 225.988281 267.035156 C 225.988281 266.957031 226.066406 266.796875 225.988281 266.71875 C 225.269531 263.371094 225.269531 260.027344 225.988281 256.761719 C 226.863281 252.78125 228.617188 249.277344 229.414062 248.640625 C 229.574219 249.121094 229.730469 251.03125 228.777344 258.117188 C 228.777344 258.355469 228.855469 258.59375 229.09375 258.675781 C 229.332031 258.753906 229.574219 258.675781 229.730469 258.4375 C 231.246094 256.125 232.042969 255.171875 232.441406 254.851562 C 232.363281 256.046875 231.484375 259.3125 230.847656 261.542969 C 230.289062 263.453125 229.652344 265.363281 229.015625 267.355469 L 227.582031 277.386719 Z M 358.582031 209.941406 L 237.941406 209.941406 C 233.238281 209.941406 229.492188 213.765625 229.492188 218.382812 L 229.492188 247.527344 C 229.332031 247.527344 229.175781 247.605469 229.015625 247.6875 C 227.738281 248.480469 225.828125 252.703125 225.03125 256.523438 C 224.3125 259.789062 224.3125 263.214844 225.03125 266.71875 L 218.734375 282.246094 L 207.738281 288.21875 L 201.683594 285.507812 C 201.445312 285.429688 201.125 285.507812 200.964844 285.75 C 200.804688 285.988281 200.964844 286.304688 201.203125 286.464844 L 206.542969 288.855469 L 205.347656 289.492188 L 194.273438 287.101562 L 179.050781 281.847656 C 178.734375 281.765625 178.496094 281.925781 178.414062 282.164062 C 178.335938 282.402344 178.496094 282.722656 178.734375 282.800781 L 194.03125 288.058594 L 205.347656 290.527344 C 205.507812 290.527344 205.585938 290.527344 205.746094 290.445312 L 229.890625 277.226562 C 229.972656 277.226562 229.972656 277.148438 230.050781 277.148438 C 238.179688 268.789062 239.691406 268.789062 239.851562 268.867188 C 239.851562 268.867188 240.25 269.425781 238.738281 272.929688 C 238.65625 273.085938 238.65625 273.328125 238.816406 273.484375 C 238.894531 273.644531 239.136719 273.722656 239.292969 273.722656 C 246.464844 272.769531 248.777344 272.929688 249.414062 273.007812 C 249.015625 273.328125 247.980469 273.882812 245.351562 274.917969 C 243.039062 275.792969 239.613281 277.070312 234.273438 278.742188 C 234.113281 278.820312 234.035156 278.898438 233.957031 278.980469 C 231.167969 283.917969 226.066406 290.84375 217.699219 295.703125 C 214.433594 297.613281 209.015625 300.796875 201.921875 300.796875 C 200.089844 300.796875 198.335938 300.558594 196.183594 300.320312 C 195.625 300.242188 194.988281 300.160156 194.351562 300.082031 C 190.527344 299.605469 186.703125 298.808594 182.957031 297.691406 C 178.097656 296.257812 173.394531 294.269531 168.933594 291.800781 C 168.691406 291.640625 168.375 291.71875 168.214844 292.039062 C 168.054688 292.277344 168.136719 292.597656 168.453125 292.753906 C 172.996094 295.304688 177.777344 297.292969 182.636719 298.808594 C 186.382812 299.921875 190.289062 300.71875 194.191406 301.195312 C 194.828125 301.277344 195.386719 301.355469 195.945312 301.433594 C 198.015625 301.675781 199.851562 301.914062 201.683594 301.914062 L 201.761719 301.914062 C 209.171875 301.914062 214.75 298.648438 218.097656 296.65625 C 226.542969 291.71875 231.804688 284.792969 234.671875 279.777344 C 239.691406 278.183594 243.199219 276.910156 245.507812 276.035156 L 358.582031 276.035156 C 363.285156 276.035156 367.03125 272.210938 367.03125 267.59375 L 367.03125 218.382812 C 367.03125 213.765625 363.285156 209.941406 358.582031 209.941406 Z M 165.824219 253.898438 C 166.621094 252.863281 168.292969 253.019531 169.089844 253.101562 C 169.648438 252.941406 170.925781 252.304688 171.640625 250.871094 C 172.277344 249.515625 171.960938 248.242188 171.800781 247.6875 C 171.722656 247.445312 171.800781 247.207031 171.960938 247.050781 C 172.121094 246.890625 172.4375 246.890625 172.597656 247.050781 C 174.113281 248.242188 175.863281 249.121094 177.699219 249.597656 C 179.847656 250.234375 182.160156 250.3125 184.390625 249.996094 C 184.550781 249.996094 184.710938 249.996094 184.789062 250.074219 C 184.871094 250.15625 184.949219 250.3125 185.027344 250.472656 C 185.1875 252.542969 185.269531 254.691406 185.347656 256.761719 C 185.425781 263.132812 184.949219 264.726562 184.390625 265.921875 C 183.675781 267.511719 182.558594 268.867188 181.125 270.0625 C 180.886719 270.222656 180.566406 270.222656 180.40625 269.980469 C 180.246094 269.742188 180.246094 269.425781 180.488281 269.265625 C 181.839844 268.230469 182.796875 266.957031 183.515625 265.523438 C 183.992188 264.488281 184.390625 263.054688 184.3125 256.84375 C 184.3125 255.011719 184.230469 253.101562 184.074219 251.191406 C 181.921875 251.507812 179.609375 251.347656 177.539062 250.710938 C 176.023438 250.234375 174.511719 249.597656 173.15625 248.722656 C 173.234375 249.4375 173.15625 250.3125 172.675781 251.269531 C 171.722656 253.261719 169.886719 253.976562 169.410156 254.136719 L 169.171875 254.136719 C 168.292969 253.976562 167.179688 253.976562 166.78125 254.535156 C 166.222656 255.25 166.78125 257.402344 169.011719 259.152344 L 169.171875 259.3125 C 170.046875 260.984375 170.683594 262.734375 170.84375 264.566406 C 171.003906 266.320312 170.925781 268.070312 170.445312 269.742188 C 170.367188 269.980469 170.128906 270.140625 169.96875 270.140625 L 169.808594 270.140625 C 169.488281 270.0625 169.332031 269.742188 169.410156 269.503906 C 169.808594 267.910156 169.96875 266.320312 169.808594 264.726562 C 169.648438 263.054688 169.089844 261.460938 168.292969 259.949219 C 165.507812 257.796875 164.867188 255.171875 165.824219 253.898438 Z M 196.902344 455.515625 L 189.332031 455.515625 L 187.417969 444.050781 L 194.273438 443.492188 Z M 160.882812 443.015625 L 156.742188 442.296875 L 150.765625 441.261719 L 149.886719 441.105469 L 164.628906 371.90625 L 171.003906 389.34375 L 174.667969 403.597656 Z M 153.234375 456.152344 L 146.222656 456.152344 L 151.082031 442.457031 L 156.660156 443.414062 Z M 197.9375 442.933594 C 198.015625 442.855469 198.097656 442.695312 198.015625 442.539062 L 188.535156 376.207031 L 187.019531 367.605469 L 196.34375 336.152344 C 196.421875 335.835938 196.265625 335.597656 195.945312 335.515625 C 195.625 335.4375 195.386719 335.597656 195.308594 335.914062 L 186.621094 365.296875 L 182.160156 339.738281 C 182.082031 339.417969 181.839844 339.257812 181.523438 339.339844 C 181.203125 339.417969 181.042969 339.65625 181.125 339.976562 L 187.5 376.445312 L 196.902344 442.21875 L 194.671875 442.378906 L 187.738281 442.933594 L 185.984375 443.09375 L 171.960938 389.105469 L 154.109375 339.894531 C 154.03125 339.65625 153.710938 339.496094 153.394531 339.578125 C 153.15625 339.65625 152.996094 339.976562 153.074219 340.292969 L 163.914062 370.074219 L 148.691406 441.503906 C 148.691406 441.660156 148.691406 441.820312 148.773438 441.898438 C 148.851562 441.980469 149.011719 442.140625 149.089844 442.140625 L 149.886719 442.296875 L 144.867188 456.472656 C 144.789062 456.632812 144.867188 456.789062 144.945312 456.949219 C 145.027344 457.109375 145.1875 457.1875 145.34375 457.1875 L 153.632812 457.1875 C 153.871094 457.1875 154.109375 457.03125 154.109375 456.789062 L 157.617188 443.574219 L 161.203125 444.210938 L 161.28125 444.210938 C 161.523438 444.210938 161.679688 444.050781 161.761719 443.890625 L 175.148438 405.589844 L 185.027344 443.8125 C 185.109375 444.050781 185.269531 444.210938 185.507812 444.210938 L 185.585938 444.210938 L 186.382812 444.128906 L 188.375 456.152344 C 188.457031 456.394531 188.613281 456.632812 188.933594 456.632812 L 197.617188 456.632812 C 197.777344 456.632812 197.9375 456.550781 198.015625 456.472656 C 198.097656 456.3125 198.175781 456.152344 198.097656 455.996094 L 195.386719 443.414062 L 197.617188 443.253906 C 197.699219 443.175781 197.859375 443.09375 197.9375 442.933594 " fill-opacity="1" fill-rule="nonzero"/><path fill="#0f0e0c" d="M 571.421875 355.421875 C 571.183594 355.183594 570.863281 355.183594 570.703125 355.421875 L 544.25 380.027344 L 544.25 355.980469 L 569.90625 330.261719 C 570.148438 330.023438 570.148438 329.703125 569.90625 329.542969 C 569.667969 329.304688 569.351562 329.304688 569.191406 329.542969 L 544.25 354.546875 L 544.25 329.066406 C 544.328125 329.066406 544.488281 328.988281 544.566406 328.90625 L 565.367188 307.726562 C 565.605469 307.488281 565.605469 307.167969 565.367188 307.007812 C 565.125 306.769531 564.808594 306.769531 564.648438 307.007812 L 544.328125 327.710938 L 544.328125 301.753906 C 544.410156 301.753906 544.566406 301.675781 544.648438 301.59375 L 554.449219 291.164062 C 554.6875 290.925781 554.609375 290.605469 554.449219 290.445312 C 554.289062 290.289062 553.890625 290.289062 553.730469 290.445312 L 544.410156 300.398438 L 544.410156 267.832031 C 544.410156 267.511719 544.167969 267.273438 543.851562 267.273438 C 543.53125 267.273438 543.292969 267.511719 543.292969 267.832031 L 543.292969 299.683594 L 533.011719 290.445312 C 532.773438 290.289062 532.457031 290.289062 532.296875 290.445312 C 532.136719 290.683594 532.136719 291.003906 532.296875 291.164062 L 543.292969 301.035156 L 543.292969 326.835938 L 522.574219 306.929688 C 522.335938 306.691406 522.015625 306.769531 521.859375 306.929688 C 521.617188 307.167969 521.699219 307.488281 521.859375 307.644531 L 543.292969 328.269531 L 543.292969 354.546875 L 518.429688 331.375 C 518.191406 331.136719 517.875 331.214844 517.714844 331.375 C 517.476562 331.613281 517.554688 331.933594 517.714844 332.09375 L 543.292969 355.902344 L 543.292969 378.992188 L 518.429688 355.265625 C 518.191406 355.023438 517.875 355.105469 517.714844 355.265625 C 517.476562 355.503906 517.554688 355.820312 517.714844 355.980469 L 543.292969 380.425781 L 543.292969 416.816406 C 543.292969 417.136719 543.53125 417.375 543.851562 417.375 C 544.167969 417.375 544.410156 417.136719 544.410156 416.816406 L 544.410156 381.0625 C 544.488281 381.0625 544.566406 380.984375 544.648438 380.90625 L 571.582031 355.902344 C 571.582031 355.980469 571.582031 355.582031 571.421875 355.421875 Z M 484.804688 349.929688 C 485.042969 343.160156 484.964844 336.3125 484.804688 329.542969 C 484.566406 322.617188 484.167969 315.53125 483.527344 308.601562 C 483.527344 308.523438 483.527344 308.523438 483.449219 308.441406 C 480.261719 301.117188 477.710938 293.710938 475.800781 286.464844 C 475.5625 285.589844 475.402344 284.714844 475.164062 283.917969 C 473.648438 277.863281 472.375 272.609375 467.910156 270.0625 C 465.839844 268.945312 463.449219 268.46875 460.660156 268.707031 C 460.339844 268.707031 460.179688 269.027344 460.179688 269.265625 C 460.179688 269.582031 460.5 269.742188 460.738281 269.742188 C 463.289062 269.503906 465.519531 269.902344 467.433594 270.9375 C 471.578125 273.246094 472.691406 278.023438 474.207031 284.078125 C 474.445312 284.953125 474.605469 285.75 474.84375 286.625 C 476.675781 293.949219 479.304688 301.355469 482.492188 308.679688 C 483.128906 315.609375 483.527344 322.535156 483.769531 329.464844 C 484.007812 336.3125 484.007812 343.160156 483.769531 350.007812 C 483.769531 350.167969 483.847656 350.246094 483.925781 350.328125 C 484.882812 351.441406 486 353.195312 486.078125 355.503906 C 486.238281 357.890625 485.203125 360.441406 484.246094 361.476562 C 484.007812 361.714844 483.847656 361.792969 483.769531 361.792969 C 483.769531 361.792969 483.050781 361.476562 482.8125 357.015625 C 482.8125 356.777344 482.652344 356.617188 482.414062 356.539062 C 482.175781 356.457031 481.9375 356.617188 481.855469 356.777344 C 481.21875 357.8125 480.898438 358.371094 480.582031 358.6875 C 480.660156 357.890625 480.898438 356.140625 482.015625 351.917969 L 482.015625 351.679688 C 480.660156 344.355469 479.066406 336.871094 477.394531 329.625 C 475.640625 321.820312 473.648438 313.855469 471.496094 305.972656 L 465.359375 289.808594 C 465.28125 289.570312 464.960938 289.410156 464.644531 289.492188 C 464.40625 289.570312 464.246094 289.890625 464.324219 290.207031 L 470.460938 306.371094 C 472.53125 314.175781 474.523438 322.058594 476.359375 329.863281 C 478.03125 337.109375 479.546875 344.515625 480.898438 351.761719 C 478.988281 359.007812 479.304688 359.804688 479.945312 360.042969 C 480.421875 360.203125 480.898438 360.042969 481.777344 358.6875 C 482.09375 361.394531 482.574219 362.667969 483.527344 362.75 L 483.6875 362.75 C 484.007812 362.75 484.40625 362.589844 484.722656 362.273438 C 486 361.15625 487.195312 358.128906 487.035156 355.34375 C 486.957031 353.035156 485.761719 351.125 484.804688 349.929688 Z M 459.625 256.605469 L 455.480469 261.78125 C 455.480469 263.054688 455.796875 264.25 456.195312 265.441406 C 456.675781 266.71875 457.390625 267.832031 458.269531 268.867188 C 458.429688 269.105469 458.429688 269.425781 458.1875 269.582031 C 458.109375 269.664062 457.949219 269.742188 457.871094 269.742188 C 457.710938 269.742188 457.550781 269.664062 457.472656 269.582031 C 456.515625 268.46875 455.71875 267.195312 455.160156 265.839844 C 454.683594 264.488281 454.363281 263.054688 454.363281 261.621094 C 454.363281 261.460938 454.363281 261.382812 454.445312 261.300781 L 458.746094 255.886719 C 458.828125 255.808594 458.90625 255.726562 458.984375 255.726562 C 459.464844 255.570312 459.78125 255.171875 459.941406 254.691406 C 460.101562 254.214844 460.101562 253.738281 459.863281 253.417969 C 459.625 253.019531 459.304688 252.703125 458.828125 252.621094 C 458.347656 252.464844 457.871094 252.621094 457.472656 252.863281 C 457.390625 252.863281 457.390625 252.941406 457.3125 252.941406 C 455.398438 253.417969 452.371094 253.738281 449.027344 252.621094 C 446.078125 251.667969 444.003906 250.074219 442.570312 248.722656 C 442.332031 250.710938 442.332031 252.621094 442.570312 254.613281 C 442.890625 257.558594 443.207031 260.90625 445.679688 263.292969 C 446.316406 263.929688 447.035156 264.40625 447.832031 264.804688 C 447.988281 264.886719 448.148438 265.046875 448.148438 265.285156 L 448.148438 269.34375 C 448.148438 269.664062 447.910156 269.902344 447.589844 269.902344 L 443.765625 269.902344 C 443.527344 269.902344 443.367188 269.742188 443.289062 269.582031 C 443.207031 269.582031 443.207031 269.582031 443.128906 269.664062 C 441.214844 269.742188 439.542969 270.222656 438.1875 271.097656 C 436.355469 272.292969 435.558594 273.964844 433.964844 277.308594 C 433.488281 278.261719 433.007812 279.378906 432.371094 280.652344 C 431.253906 282.800781 430.140625 285.03125 428.945312 287.183594 C 428.863281 287.339844 428.707031 287.421875 428.46875 287.421875 C 424.5625 287.421875 420.65625 287.023438 416.753906 286.386719 C 409.101562 285.03125 401.773438 282.324219 394.839844 278.503906 C 394.679688 278.421875 394.601562 278.183594 394.601562 278.023438 C 394.679688 275.316406 394.121094 273.085938 392.769531 271.414062 C 391.972656 270.378906 391.175781 269.664062 390.855469 269.664062 C 390.777344 269.742188 390.535156 270.777344 391.175781 273.644531 C 391.175781 273.804688 391.175781 273.964844 391.015625 274.121094 C 390.933594 274.28125 390.695312 274.28125 390.535156 274.28125 C 388.703125 274.042969 387.667969 274.042969 387.03125 274.042969 C 387.589844 274.363281 388.226562 274.679688 388.941406 275.238281 C 390.378906 276.433594 391.414062 278.023438 392.128906 280.015625 C 397.628906 285.191406 403.683594 289.648438 410.140625 293.234375 C 417.550781 297.375 421.054688 298.011719 423.605469 298.011719 C 427.988281 298.089844 432.449219 296.738281 436.59375 294.03125 C 436.832031 293.871094 437.152344 293.949219 437.3125 294.1875 C 437.472656 294.429688 437.390625 294.746094 437.152344 294.90625 C 433.007812 297.613281 428.46875 299.046875 424.003906 299.046875 L 423.527344 299.046875 C 420.898438 298.96875 417.152344 298.328125 409.582031 294.109375 C 403.046875 290.445312 396.910156 285.90625 391.253906 280.652344 C 391.175781 280.574219 391.175781 280.492188 391.09375 280.414062 C 390.457031 278.503906 389.5 277.070312 388.226562 275.953125 C 387.589844 275.398438 386.871094 275.078125 386.394531 274.757812 C 385.675781 274.363281 385.117188 274.042969 385.277344 273.484375 C 385.4375 272.929688 385.835938 272.609375 389.898438 273.007812 C 389.261719 269.503906 389.820312 268.789062 390.378906 268.546875 C 391.332031 268.152344 392.609375 269.425781 393.484375 270.617188 C 394.839844 272.449219 395.558594 274.839844 395.476562 277.625 C 402.171875 281.367188 409.34375 283.917969 416.753906 285.269531 C 420.417969 285.90625 424.164062 286.304688 427.910156 286.304688 C 429.023438 284.234375 430.140625 282.164062 431.175781 280.09375 C 431.8125 278.820312 432.292969 277.707031 432.769531 276.75 C 434.441406 273.246094 435.238281 271.496094 437.3125 270.0625 C 438.824219 269.027344 440.738281 268.46875 442.808594 268.46875 C 443.050781 268.46875 443.207031 268.628906 443.289062 268.789062 L 446.714844 268.789062 L 446.714844 265.523438 C 445.917969 265.125 445.199219 264.566406 444.5625 263.929688 C 441.855469 261.300781 441.457031 257.71875 441.136719 254.613281 C 440.898438 252.226562 440.976562 249.757812 441.296875 247.367188 C 441.296875 247.128906 441.457031 246.96875 441.695312 246.96875 C 441.933594 246.890625 442.09375 246.96875 442.253906 247.128906 C 443.527344 248.5625 445.679688 250.550781 449.027344 251.585938 C 452.132812 252.542969 454.921875 252.304688 456.675781 251.90625 C 457.3125 251.507812 458.109375 251.429688 458.828125 251.585938 C 459.542969 251.746094 460.179688 252.226562 460.5 252.941406 C 460.820312 253.578125 460.898438 254.375 460.660156 255.089844 C 460.820312 255.726562 460.261719 256.285156 459.625 256.605469 Z M 471.257812 368.800781 C 471.578125 368.800781 471.816406 368.5625 471.816406 368.242188 L 470.9375 339.496094 C 470.9375 339.179688 470.699219 339.019531 470.382812 339.019531 C 470.0625 339.019531 469.824219 339.257812 469.902344 339.578125 L 470.78125 368.324219 C 470.699219 368.5625 470.9375 368.800781 471.257812 368.800781 Z M 498.988281 433.378906 L 489.1875 439.511719 C 489.105469 439.589844 489.027344 439.589844 488.867188 439.589844 C 488.707031 439.589844 488.550781 439.511719 488.46875 439.351562 L 459.863281 399.695312 L 460.898438 440.148438 C 460.898438 440.46875 460.660156 440.625 460.421875 440.707031 L 447.988281 441.820312 L 447.910156 441.820312 C 447.671875 441.820312 447.433594 441.660156 447.351562 441.421875 L 437.3125 394.363281 L 434.285156 333.683594 C 434.285156 333.367188 434.523438 333.128906 434.761719 333.128906 C 435.082031 333.128906 435.320312 333.367188 435.320312 333.605469 L 438.347656 394.203125 L 448.386719 440.707031 L 459.863281 439.671875 L 458.828125 398.183594 L 451.335938 387.832031 C 451.257812 387.753906 451.257812 387.671875 451.257812 387.59375 L 443.207031 336.949219 C 443.128906 336.632812 443.367188 336.390625 443.6875 336.3125 C 444.003906 336.234375 444.246094 336.472656 444.324219 336.789062 L 452.371094 387.355469 L 489.1875 438.398438 L 498.113281 432.824219 L 479.066406 399.777344 C 478.90625 399.539062 478.988281 399.21875 479.226562 399.058594 C 479.464844 398.902344 479.785156 398.980469 479.941406 399.21875 L 499.308594 432.742188 C 499.308594 432.902344 499.226562 433.222656 498.988281 433.378906 Z M 71.160156 353.511719 L 44.222656 378.515625 C 44.144531 378.59375 44.066406 378.59375 43.984375 378.675781 L 43.984375 414.429688 C 43.984375 414.746094 43.746094 414.984375 43.425781 414.984375 C 43.105469 414.984375 42.871094 414.746094 42.871094 414.429688 L 42.871094 378.039062 L 17.289062 353.59375 C 17.050781 353.351562 17.050781 353.035156 17.289062 352.875 C 17.53125 352.636719 17.847656 352.636719 18.007812 352.875 L 42.871094 376.445312 L 42.871094 353.351562 L 17.289062 329.542969 C 17.050781 329.304688 17.050781 328.988281 17.289062 328.828125 C 17.53125 328.589844 17.847656 328.589844 18.007812 328.828125 L 42.871094 351.917969 L 42.871094 325.640625 L 21.433594 305.019531 C 21.195312 304.78125 21.195312 304.460938 21.433594 304.300781 C 21.671875 304.0625 21.992188 304.0625 22.152344 304.300781 L 42.871094 324.210938 L 42.871094 298.410156 L 31.875 288.535156 C 31.632812 288.375 31.632812 287.976562 31.875 287.820312 C 32.03125 287.578125 32.429688 287.578125 32.589844 287.820312 L 42.871094 296.976562 L 42.871094 265.125 C 42.871094 264.804688 43.105469 264.566406 43.425781 264.566406 C 43.746094 264.566406 43.984375 264.804688 43.984375 265.125 L 43.984375 297.691406 L 53.308594 287.738281 C 53.546875 287.5 53.863281 287.5 54.027344 287.738281 C 54.261719 287.976562 54.261719 288.296875 54.027344 288.457031 L 44.222656 298.886719 C 44.144531 298.96875 44.066406 299.046875 43.902344 299.046875 L 43.902344 325.003906 L 64.222656 304.300781 C 64.464844 304.0625 64.785156 304.0625 64.941406 304.300781 C 65.183594 304.539062 65.183594 304.859375 64.941406 305.019531 L 44.144531 326.199219 C 44.066406 326.28125 43.984375 326.359375 43.824219 326.359375 L 43.824219 351.839844 L 68.769531 326.835938 C 69.003906 326.597656 69.324219 326.597656 69.484375 326.835938 C 69.722656 327.074219 69.722656 327.394531 69.484375 327.554688 L 43.824219 353.273438 L 43.824219 377.242188 L 70.28125 352.636719 C 70.519531 352.398438 70.839844 352.476562 70.996094 352.636719 C 71.394531 352.953125 71.394531 353.351562 71.160156 353.511719 " fill-opacity="1" fill-rule="nonzero"/><path fill="#3784ba" d="M 571.023438 416.976562 L 571.023438 430.355469 L 565.285156 430.355469 L 559.945312 460.214844 L 529.347656 460.214844 L 523.210938 430.355469 L 516.28125 430.355469 L 516.28125 416.976562 Z M 484.324219 372.625 L 484.324219 382.417969 C 484.484375 383.292969 485.28125 383.851562 486.078125 383.769531 C 486.714844 383.691406 487.273438 383.132812 487.433594 382.417969 C 487.113281 384.648438 488.789062 386.398438 490.460938 386.480469 C 492.136719 386.558594 493.96875 384.726562 493.648438 382.417969 L 493.648438 372.625 Z M 443.765625 269.1875 C 443.449219 269.1875 443.050781 269.105469 442.730469 269.105469 C 440.898438 271.8125 437.710938 277.226562 436.675781 284.871094 C 435.558594 292.835938 437.390625 299.125 438.425781 302.230469 C 438.585938 306.214844 438.347656 311.46875 436.992188 317.441406 C 435.636719 323.652344 433.566406 328.667969 431.734375 332.332031 C 435.796875 334.320312 440.976562 336.3125 447.113281 337.746094 C 457.074219 340.136719 465.839844 339.976562 471.976562 339.417969 C 469.742188 333.128906 467.671875 325.960938 466.078125 317.996094 C 465.28125 314.015625 464.644531 310.113281 464.164062 306.453125 C 463.609375 304.300781 463.128906 301.195312 463.367188 297.453125 C 463.609375 294.507812 464.246094 292.039062 464.882812 290.207031 C 463.6875 288.613281 462.253906 286.542969 461.058594 283.996094 C 459.226562 280.015625 458.507812 276.351562 458.1875 273.722656 C 459.066406 272.210938 459.863281 270.699219 460.738281 269.1875 L 458.03125 269.1875 C 457.871094 269.425781 455.957031 273.167969 451.894531 273.644531 C 448.546875 274.042969 445.28125 272.292969 443.765625 269.1875 Z M 175.386719 273.246094 C 172.835938 273.40625 170.445312 271.972656 169.332031 269.582031 C 165.585938 269.265625 160.566406 269.503906 157.539062 272.769531 C 153.074219 277.46875 155.148438 285.988281 155.785156 289.253906 C 157.855469 299.207031 158.492188 314.890625 151.960938 339.894531 C 156.898438 340.773438 162.875 341.410156 169.648438 341.171875 C 181.921875 340.773438 191.800781 337.746094 198.574219 335.039062 C 197.0625 323.652344 195.546875 312.265625 194.113281 300.796875 C 190.527344 300.398438 186.304688 299.605469 181.601562 298.089844 C 176.34375 296.417969 171.960938 294.347656 168.613281 292.4375 C 170.207031 291.640625 172.277344 290.367188 174.351562 288.296875 C 176.582031 286.148438 177.9375 284.078125 178.8125 282.484375 C 183.914062 284.234375 188.933594 285.988281 194.03125 287.738281 C 194.910156 287.898438 196.820312 288.136719 198.972656 287.339844 C 200.488281 286.785156 201.523438 285.988281 202.160156 285.429688 C 199.292969 282.007812 197.21875 278.980469 195.785156 276.828125 C 192.996094 272.6875 192.28125 270.859375 190.050781 269.664062 C 186.941406 267.992188 183.277344 268.789062 180.726562 269.664062 C 179.691406 271.734375 177.699219 273.085938 175.386719 273.246094 Z M 386.710938 365.058594 L 267.742188 365.058594 L 267.742188 384.167969 L 386.710938 384.167969 Z M 386.710938 336.871094 L 267.742188 336.871094 L 267.742188 355.105469 L 386.710938 355.105469 Z M 386.710938 327.316406 L 267.742188 327.316406 L 267.742188 305.972656 L 386.710938 305.972656 L 386.710938 327.316406 " fill-opacity="1" fill-rule="nonzero"/></svg>